<?xml version="1.0" encoding="UTF-8" standalone="no"?>
<svg
   viewBox="0 0 10 16"
   version="1.1"
   id="svg1"
   sodipodi:docname="go-next-symbolic.svg"
   inkscape:version="1.4 (e7c3feb100, 2024-10-09)"
   width="10"
   height="16"
   xmlns:inkscape="http://www.inkscape.org/namespaces/inkscape"
   xmlns:sodipodi="http://sodipodi.sourceforge.net/DTD/sodipodi-0.dtd"
   xmlns="http://www.w3.org/2000/svg"
   xmlns:svg="http://www.w3.org/2000/svg">
  <defs
     id="defs1" />
  <sodipodi:namedview
     id="namedview1"
     pagecolor="#ffffff"
     bordercolor="#000000"
     borderopacity="0.25"
     inkscape:showpageshadow="2"
     inkscape:pageopacity="0.0"
     inkscape:pagecheckerboard="0"
     inkscape:deskcolor="#d1d1d1"
     inkscape:zoom="29.4375"
     inkscape:cx="-2.0212314"
     inkscape:cy="11.957537"
     inkscape:window-width="2165"
     inkscape:window-height="1253"
     inkscape:window-x="0"
     inkscape:window-y="0"
     inkscape:window-maximized="0"
     inkscape:current-layer="svg1" />
  <path
     d="M 2.5,0.73885368 C 3.19,1.5321338 3.897,2.333583 4.508,3.1495542 5.187,4.0571977 5.795,4.9394269 6.333,5.7926115 6.83,6.580446 7.203,7.4027709 7.5,8.0000001 7.203,8.5972295 6.83,9.4195543 6.333,10.207388 a 44.816,40.676943 0 0 1 -1.825,2.643058 c -0.61,0.816879 -1.317,1.61742 -2.008,2.4107 V 13.908758 C 2.9,13.433152 3.337,12.944841 3.722,12.433838 4.208,11.789411 4.664,11.129554 5.092,10.455175 5.525,9.7699048 6.042,8.8286785 6.377,8.186067 V 8.1851593 L 6.473,8.0000001 6.377,7.8157485 A 39.108,35.496114 0 0 0 5.092,5.5457327 32.873,29.836959 0 0 0 3.722,3.5661625 C 3.337,3.056067 2.9,2.567755 2.5,2.0912423 Z"
     fill="#808080"
     id="path1"
     style="stroke-width:0.952703" />
</svg>
