<?xml version="1.0" encoding="UTF-8" standalone="no"?>
<svg
   viewBox="0 0 10 16"
   version="1.1"
   id="svg1"
   sodipodi:docname="go-previous-symbolic.svg"
   inkscape:version="1.4 (e7c3feb100, 2024-10-09)"
   width="10"
   height="16"
   xmlns:inkscape="http://www.inkscape.org/namespaces/inkscape"
   xmlns:sodipodi="http://sodipodi.sourceforge.net/DTD/sodipodi-0.dtd"
   xmlns="http://www.w3.org/2000/svg"
   xmlns:svg="http://www.w3.org/2000/svg">
  <defs
     id="defs1" />
  <sodipodi:namedview
     id="namedview1"
     pagecolor="#ffffff"
     bordercolor="#000000"
     borderopacity="0.25"
     inkscape:showpageshadow="2"
     inkscape:pageopacity="0.0"
     inkscape:pagecheckerboard="0"
     inkscape:deskcolor="#d1d1d1"
     inkscape:zoom="29.4375"
     inkscape:cx="2.7346072"
     inkscape:cy="11.10828"
     inkscape:window-width="2165"
     inkscape:window-height="1253"
     inkscape:window-x="0"
     inkscape:window-y="0"
     inkscape:window-maximized="0"
     inkscape:current-layer="svg1" />
  <path
     d="M 7.5,0.73036104 C 6.81,1.5245692 6.103,2.3269556 5.492,3.1438812 4.813,4.0525861 4.205,4.9358473 3.667,5.7900298 3.17,6.5787857 2.797,7.4020723 2.5,8.0000001 2.797,8.5979279 3.17,9.4212147 3.667,10.20997 a 45.19,41.064373 0 0 0 1.825,2.646148 c 0.61,0.817835 1.317,1.619313 2.008,2.413521 V 13.91567 C 7.1,13.439507 6.663,12.950625 6.278,12.439023 A 32.845,29.846412 0 0 1 4.908,10.458047 39.196,35.617596 0 0 1 3.623,8.1862846 V 8.185376 L 3.527,8.0000001 3.623,7.8155331 C 3.957,7.1703526 4.475,6.2280255 4.908,5.5428621 A 33.18,30.150828 0 0 1 6.278,3.5609768 C 6.663,3.0502846 7.1,2.5614015 7.5,2.0843314 Z"
     fill="#808080"
     id="path1"
     style="stroke-width:0.95326" />
</svg>
